<svg xmlns="http://www.w3.org/2000/svg" viewBox="0 0 1024 512"><defs><style>.a{fill:#ff1d25;}</style></defs><title>fridge-Artboard 1</title><path class="a" d="M232.86,342.14a43.74,43.74,0,0,1,.31,5.34v4.71a27.74,27.74,0,0,1-.94,7.85,4.14,4.14,0,0,1-4.39,3.14,4.64,4.64,0,0,1-3.61-1.57q-1.41-1.57-1.41-6c0-1.68.1-4.5.31-8.47s.31-7.42.31-10.36q0-6-.63-13.49t-.63-13.18q0-10,4.39-10,4.71,0,5.65,11,.63,11,2.51,16.95t7.85,11.3a41.17,41.17,0,0,0,16.16,9.26,64.93,64.93,0,0,0,18.67,2.67A60,60,0,0,0,290,349.83a37.46,37.46,0,0,0,11.92-4.71,29.3,29.3,0,0,0,8.94-8.63q3.6-5.33,3.61-13.49,0-7.22-3.14-11.77a26.16,26.16,0,0,0-9.1-7.85,66,66,0,0,0-14.75-5.65q-8.79-2.35-20.08-4.86-19.77-4.39-30.75-13.5t-11-27q0-11.3,4.24-19.14a38.8,38.8,0,0,1,11.3-13,47,47,0,0,1,16-7.53,71.82,71.82,0,0,1,18.36-2.35,57.56,57.56,0,0,1,15.69,1.88,40.22,40.22,0,0,1,11.3,5,32,32,0,0,1,7.53,6.75,67.67,67.67,0,0,1,4.71,6.75q-.32-4.07-.47-8.47t-.16-6.9q0-6.27,1.26-8.47a4.07,4.07,0,0,1,3.77-2.2A4.62,4.62,0,0,1,323.4,207a11.11,11.11,0,0,1,1.41,5.81q0,18.83-.47,31.23t-.47,15.85a16.37,16.37,0,0,1-.94,5.49,3.67,3.67,0,0,1-3.77,2.67,3.94,3.94,0,0,1-3.92-2.67,19.87,19.87,0,0,1-1.41-5.18q-.32-2.51-.47-5.81a31,31,0,0,0-1.73-8,44.8,44.8,0,0,0-4.39-10.51A29.08,29.08,0,0,0,300,227.6a34.36,34.36,0,0,0-10.67-5.49,49.1,49.1,0,0,0-15.06-2,60.78,60.78,0,0,0-14.75,1.73,31.52,31.52,0,0,0-11.93,5.65,26.73,26.73,0,0,0-7.85,10,35.44,35.44,0,0,0-2.82,14.91q0,8.16,2.67,13.34a21.07,21.07,0,0,0,8.16,8.47,57.13,57.13,0,0,0,13.81,5.65q8.31,2.35,19.61,4.86,10.36,2.52,18.67,5.18A55.57,55.57,0,0,1,314,296.48a28,28,0,0,1,9.1,10,31.08,31.08,0,0,1,3.3,14.91q0,13.5-6.28,21.34a42.72,42.72,0,0,1-14.59,11.93,53.83,53.83,0,0,1-16.79,5.18,108.52,108.52,0,0,1-12.55,1.1,63.57,63.57,0,0,1-13-1.41,69.19,69.19,0,0,1-12.71-3.92,52.25,52.25,0,0,1-10.67-6A23.08,23.08,0,0,1,232.86,342.14Z"/><path class="a" d="M392.28,245.17Q400.44,226,415.19,216t30.44-10q17.89,0,29.19,7.22a52.68,52.68,0,0,1,17.57,18A73.11,73.11,0,0,1,501,254.9a134.7,134.7,0,0,1,2.35,24.16q0,22.6-7.06,37.5t-17.1,24A60.43,60.43,0,0,1,458,353.44q-11.14,3.76-19.3,3.77a61.91,61.91,0,0,1-18-2.35,54,54,0,0,1-13.34-6,38.76,38.76,0,0,1-9.26-8,52.89,52.89,0,0,1-5.81-8.47v75.95h20.4q8.16,0,11.93,1.57t3.77,3.14a3.25,3.25,0,0,1-1.88,3.14,9.71,9.71,0,0,1-4.39.94H351.48a11.9,11.9,0,0,1-3.77-.63q-1.88-.63-1.88-3.14,0-1.88,3.14-3t11.3-1.73a78.62,78.62,0,0,0,11.14-1.1,9.18,9.18,0,0,0,5.81-3.3q1.88-2.52,2.2-8t.31-15.53q0-6.28.16-12.24t.31-13.18q.15-7.22.31-16.95t.16-23.54q0-16-.16-27.77T380,266q-.32-9.25-.47-16.32t-.16-13.65q0-9.41-2-11.3t-8.63-1.88h-22.6a78.8,78.8,0,0,1-8-.47q-4.55-.47-4.55-2.67t4.24-3.61a56.84,56.84,0,0,1,11.3-2.2q7.06-.78,16.32-.94t19-.16q4.39,0,6.12,2t1.73,9.26ZM392,285a133.78,133.78,0,0,0,2,23.85,58.58,58.58,0,0,0,7.22,19.93,39.21,39.21,0,0,0,14,13.81q8.78,5.18,22.6,5.18a51.58,51.58,0,0,0,16.16-3A44.34,44.34,0,0,0,470.89,334q8-7.84,13.34-21.34t5.34-34.21A143.24,143.24,0,0,0,488,258.35a63.86,63.86,0,0,0-6.43-20.4,44.55,44.55,0,0,0-13.81-15.85q-8.94-6.43-23.38-6.43a42.58,42.58,0,0,0-17.73,4.24,50.55,50.55,0,0,0-16.95,13A72.13,72.13,0,0,0,397,254.74Q392,267.77,392,285Z"/><path class="a" d="M568.33,345h19.46a44,44,0,0,1,11,1.1q4.08,1.1,4.08,3.61a3.28,3.28,0,0,1-3,3.45,31,31,0,0,1-6.43.63h-49.9q-7.53,0-14.59-.47t-7.06-3.3q0-3.13,20.09-4.39,6.9-.63,9.57-1.88a5.3,5.3,0,0,0,3-4.71q.94-11.92,1.1-26.36t.16-25.73q0-14.43-.31-27.77t-.94-27.46a9.15,9.15,0,0,0-1.26-3.92q-.94-1.41-3.45-1.41c-1.05,0-2.82.11-5.34.31s-5.13.37-7.85.47-5.33.26-7.85.47-4.19.31-5,.31a38.38,38.38,0,0,1-5.65-.47c-2.09-.31-3.14-1.3-3.14-3q0-2.82,4.39-4.08t15.38-1.88q6.9-.62,15.38-1.1t12.55-.47q3.76,0,4.71,3a27.45,27.45,0,0,1,.94,8Z"/><path class="a" d="M699.5,339.63q.94-13.49,1.41-26.83t.47-28.4q0-15.06-.31-32.64t-.63-33.89q-4.71,0-12.24-.16t-15.06-.16q-7.53,0-13.34-.16t-7.06-.16q-3.76,0-4.71.94a3.39,3.39,0,0,0-.94,2.51V363.17h21.34q9.1,0,9.1,4.71,0,2.19-2.67,3.3T664,372.27q-5.34,0-12.87-.31t-14.75-.31q-8.47,0-15.69.47t-10.67.47a51.61,51.61,0,0,1-7.53-.47q-3.14-.47-3.14-3t3.3-3.14a67.75,67.75,0,0,1,6.75-.94q13.18-.94,18-2t5.18-4.55q.31-6.59.78-16.63t.63-20.4q.15-10.36.31-19.46t.16-14.12q0-13.81-.16-23.38t-.31-20.24q-.16-10.67-.16-18.83a17.92,17.92,0,0,0-.79-6.28,3.19,3.19,0,0,0-3.3-1.88h-21q-5.34,0-7.22-1.73a4.93,4.93,0,0,1-1.88-3.61,2.67,2.67,0,0,1,2.2-3,43.56,43.56,0,0,1,7.85-.47h20.08a3,3,0,0,0,3.14-2.67,26.94,26.94,0,0,0,.63-6.12q0-4.39.63-12.71a143.56,143.56,0,0,1,2.67-18.2,132.72,132.72,0,0,1,6-20.24,69.51,69.51,0,0,1,10.67-18.83,52.86,52.86,0,0,1,16.79-13.81q10-5.33,24.16-5.34,9.1,0,14.44,2.2a41.15,41.15,0,0,1,9.42,5.34,58.7,58.7,0,0,1,17.42-16.63q10.51-6.59,26.2-6.59,11.61,0,19.46,3.61a34.88,34.88,0,0,1,12.24,8.79,32.41,32.41,0,0,1,6.28,11,33.7,33.7,0,0,1,1.88,10.2,19,19,0,0,1-3.3,11.46,10.46,10.46,0,0,1-8.94,4.55,10.31,10.31,0,0,1-7.38-2.82q-3-2.82-3-8.16,0-5,4.71-8.47a24.88,24.88,0,0,0,3.61-3.14,5.07,5.07,0,0,0,1.1-3.45q0-5-5.65-10.2T763.84,103q-12.55,0-21,5a44.11,44.11,0,0,0-14.12,13.34,64.65,64.65,0,0,0-8.63,18.83,147.58,147.58,0,0,0-4.39,21.5,190.69,190.69,0,0,0-1.57,21.5q-.16,10.52-.16,18.67,0,4.08.63,5.33a2,2,0,0,0,1.88,1.26h24.48a13.52,13.52,0,0,1,5.81,1.26,4,4,0,0,1,2.67,3.77c0,1.68-.94,2.82-2.82,3.45a19.78,19.78,0,0,1-6.28.94c-1,0-2.51,0-4.39-.16s-3.87-.16-6-.16-4.13,0-6.12-.16-3.4-.16-4.24-.16q-3.76,0-4.71.94a3.39,3.39,0,0,0-.94,2.51V344.34h34.21q9.1,0,9.1,4.71,0,2.2-2.67,3.3t-10.83,1.1q-2.52,0-6.9-.16t-9.26-.16q-4.87,0-9.73-.16t-8.32-.16q-8.47,0-14.12.47t-9.1.47a51.46,51.46,0,0,1-7.53-.47q-3.14-.47-3.14-3t3.3-3.14c2.2-.42,4.44-.73,6.75-.94a72.78,72.78,0,0,0,9.73-1.57A5.07,5.07,0,0,0,699.5,339.63ZM647.1,201.87c0,2.72.21,4.5.63,5.33a2,2,0,0,0,1.88,1.26h50.84q0-10.36.31-21.5a215.81,215.81,0,0,1,1.73-22,158.12,158.12,0,0,1,4.24-21.18,91.28,91.28,0,0,1,7.53-19.14,20.59,20.59,0,0,0-6.59-4.24q-4.08-1.72-11.3-1.73-12.24,0-20.71,5.34a46.5,46.5,0,0,0-14,13.49,66.44,66.44,0,0,0-8.47,18,138.72,138.72,0,0,0-4.39,19.14,129.79,129.79,0,0,0-1.57,16.63Q647.09,198.73,647.1,201.87Z"/><path class="a" d="M567.94,105.68c-2.41-.37-38.07,54.62-37.07,57s23.67-10.82,25.25-8.66S539,193,541.34,193.66s48.52-63.25,46.9-65.15-30.14,12.59-31.85,11.24S570.35,106,567.94,105.68Z"/><path class="a" d="M470.44,398.14q0,1.57,0,3.67t-.07,4.25q0,2.16-.07,4.23t0,3.65v2.43q0,.68,0,1.33c0,.43,0,.8,0,1.1h3.15a3.79,3.79,0,0,1,1.6.27.93.93,0,0,1,.56.9q0,.67-.45.83a2.73,2.73,0,0,1-.9.16H467l-1.12,0a7.29,7.29,0,0,1-1.06-.11,2,2,0,0,1-.77-.29.65.65,0,0,1-.29-.56.77.77,0,0,1,.5-.81,5.76,5.76,0,0,1,1-.27,8.1,8.1,0,0,0,1.53-.27q.36-.13.36-.67a23.79,23.79,0,0,0,.18-2.7q0-1.8,0-4.37,0-1.71,0-3.62t0-3.58q0-1.67,0-2.88t-.07-1.53a1.64,1.64,0,0,0-.18-.52c-.09-.17-.3-.25-.63-.25l-.56,0-1,0-1.1,0-.81,0-.94,0-1.15,0-1.06,0-.72,0c-.54,0-.81.17-.81.5v1q0,.83,0,2t0,2.52q0,1.35,0,2.57t0,2.14v1.24a25.46,25.46,0,0,0,.18,3.15q.18,1.44.23,1.67h4.59q1.39,0,1.4,1.08a.85.85,0,0,1-.4.79,3.36,3.36,0,0,1-1.58.25l-1,0-1.33,0-1.4,0-1.19,0q-1.22,0-2.36.07t-1.64.07a6.05,6.05,0,0,1-1.19-.11q-.56-.11-.56-.83a.73.73,0,0,1,.58-.79q.58-.16,1.08-.25a3.16,3.16,0,0,0,1.21-.29,1.16,1.16,0,0,0,.27-.65,13.44,13.44,0,0,0,.14-1.64q0-1.15.07-2.63t0-3.15v-7.38a2.56,2.56,0,0,0-.11-.9.46.46,0,0,0-.47-.27h-2.12a1.59,1.59,0,0,1-1.17-.4,1.35,1.35,0,0,1-.4-1,1,1,0,0,1,.45-.95,2.46,2.46,0,0,1,1.26-.27h2a.45.45,0,0,0,.5-.36,4.55,4.55,0,0,0,.09-1q0-1.44.11-3.08a22.73,22.73,0,0,1,.45-3.22,16.81,16.81,0,0,1,.94-3,8,8,0,0,1,1.67-2.52,7.87,7.87,0,0,1,2.61-1.73,9.7,9.7,0,0,1,3.76-.65,8.73,8.73,0,0,1,2.21.29,4.75,4.75,0,0,1,2,1.15,6.05,6.05,0,0,1,1.48,2.34,11,11,0,0,1,.56,3.83,8.15,8.15,0,0,1-.11,1.37,3.32,3.32,0,0,1-.43,1.17,2.31,2.31,0,0,1-.81.81,2.53,2.53,0,0,1-1.3.29,2.43,2.43,0,0,1-1.85-.58,1.93,1.93,0,0,1-.54-1.35,1.26,1.26,0,0,1,.27-.88q.27-.29.61-.61a4.46,4.46,0,0,0,.63-.74,2.39,2.39,0,0,0,.29-1.33,3.07,3.07,0,0,0-.2-1.08,2.79,2.79,0,0,0-.65-1,3.22,3.22,0,0,0-1.19-.72,5.37,5.37,0,0,0-1.82-.27,4,4,0,0,0-2.29.63,5.25,5.25,0,0,0-1.58,1.67,9.14,9.14,0,0,0-1,2.34,22.67,22.67,0,0,0-.56,2.63,22.28,22.28,0,0,0-.25,2.59q0,1.26,0,2.16a2.42,2.42,0,0,0,.07.77.29.29,0,0,0,.29.13H469a1.15,1.15,0,0,1,1.15.61A3.84,3.84,0,0,1,470.44,398.14Z"/><path class="a" d="M482.09,382.08q0,1.13,0,2.36t0,2.29v2.5q0,10.17,0,16.38t0,9.22h2.07a2.61,2.61,0,0,1,1.82.45,1.41,1.41,0,0,1,.43,1,1.16,1.16,0,0,1-.38.76,1.78,1.78,0,0,1-1.33.41l-.85,0-1.15,0-1.26,0-1.24,0-1,0-1.12,0-1.08,0-.88,0a2.27,2.27,0,0,1-1.51-.38,1.08,1.08,0,0,1-.43-.79,1,1,0,0,1,.36-.92,1.14,1.14,0,0,1,.58-.25l1.48-.09q2-.13,2.12-1.4t.09-2.66q0-1.39.09-3.15t0-4V393.76q0-2.18,0-3.92t0-3.13V384a2.48,2.48,0,0,0-.14-1c-.09-.18-.33-.27-.72-.27H475.3a4.58,4.58,0,0,1-1.51-.2.75.75,0,0,1-.56-.74q0-.45.65-.7a7.63,7.63,0,0,1,1.62-.38q1-.13,2-.18t2,0a6.85,6.85,0,0,1,1.91.2Q482.09,380.91,482.09,382.08Z"/><path class="a" d="M490.91,406.65a4.33,4.33,0,0,0-.07.47c0,.17,0,.32,0,.47a8.49,8.49,0,0,0,.45,2.7,7.66,7.66,0,0,0,1.33,2.43,6.6,6.6,0,0,0,2.16,1.73,6.42,6.42,0,0,0,2.95.65,7.29,7.29,0,0,0,3-.54,5.66,5.66,0,0,0,2-1.37,5.34,5.34,0,0,0,1.08-1.8,5.44,5.44,0,0,0,.34-1.78,2,2,0,0,1,.29-.9,1.28,1.28,0,0,1,1.24-.54,1.34,1.34,0,0,1,.95.38,1.39,1.39,0,0,1,.4,1.06,10.23,10.23,0,0,1-.47,3.08,6.72,6.72,0,0,1-1.6,2.68,8.06,8.06,0,0,1-3.06,1.89A13.94,13.94,0,0,1,497,418a10.09,10.09,0,0,1-4.12-.79,8.2,8.2,0,0,1-3-2.23,9.63,9.63,0,0,1-1.82-3.4,15.85,15.85,0,0,1,.11-9.07,9.68,9.68,0,0,1,2.07-3.56,9.27,9.27,0,0,1,3.24-2.23,10.79,10.79,0,0,1,4.19-.79,9.09,9.09,0,0,1,4.19.88,8.7,8.7,0,0,1,2.75,2.12,8,8,0,0,1,1.48,2.57,7.22,7.22,0,0,1,.45,2.23,4,4,0,0,1-.5,1.93,1.53,1.53,0,0,1-1.4.9l-3.31,0-4.07,0H496l-1.8,0-1.82,0Zm11.56-2.88q.76,0,.77-.36a3.85,3.85,0,0,0-.36-1.51,4.94,4.94,0,0,0-1.06-1.53A5.72,5.72,0,0,0,500,399.2a6.24,6.24,0,0,0-2.52-.47,6.44,6.44,0,0,0-2.52.47,6.61,6.61,0,0,0-1.94,1.21,6.28,6.28,0,0,0-1.31,1.67,6.5,6.5,0,0,0-.67,1.87Z"/><path class="a" d="M522.37,399.22q-.86,0-1.94,0t-1.89,0a1.92,1.92,0,0,1-.79-.27,1.1,1.1,0,0,1-.52-1.08,1,1,0,0,1,.45-.92,2.65,2.65,0,0,1,1.08-.38l2.29-.22c.6-.06,1-.2,1.08-.43a2.48,2.48,0,0,0,.18-1.1q0-.94,0-2a9,9,0,0,1,.25-2q.23-.9.72-1.08a2.43,2.43,0,0,1,.72-.18,1.86,1.86,0,0,1,1,.29q.45.29.45,1.64v4.82l1.22,0,1.91-.07,1.87-.07,1.13,0a2.24,2.24,0,0,1,1.08.29,1.23,1.23,0,0,1,.13,1.93,2.2,2.2,0,0,1-.81.38q-1.62.18-3.31.22t-3.22.14v11.43a13.76,13.76,0,0,0,.09,1.53,6.68,6.68,0,0,0,.34,1.51,2.88,2.88,0,0,0,.72,1.15,1.78,1.78,0,0,0,1.28.45,2.42,2.42,0,0,0,1.17-.25,2.81,2.81,0,0,0,.76-.61,3,3,0,0,0,.5-.77q.18-.4.32-.76c.09-.24.17-.48.25-.72a2.82,2.82,0,0,1,.29-.65,1.36,1.36,0,0,1,.49-.47,1.72,1.72,0,0,1,.86-.18.91.91,0,0,1,.58.18,1.23,1.23,0,0,1,.34.4,1.85,1.85,0,0,1,.16.45,2,2,0,0,1,0,.32,5,5,0,0,1-.36,1.62,6.24,6.24,0,0,1-1.15,1.91,6.86,6.86,0,0,1-2,1.58,6,6,0,0,1-2.88.65,4.2,4.2,0,0,1-3.78-1.84,5.65,5.65,0,0,1-.7-1.46,11.38,11.38,0,0,1-.38-1.62,12.19,12.19,0,0,1-.16-1.6q0-.76,0-1.39Z"/><path class="a" d="M552.79,402.28a7,7,0,0,1-.16,1.49,3.93,3.93,0,0,1-.52,1.28,2.92,2.92,0,0,1-.95.92,2.79,2.79,0,0,1-1.48.36,2.53,2.53,0,0,1-1.42-.43,1.47,1.47,0,0,1-.65-1.33,1.33,1.33,0,0,1,.29-1,2.06,2.06,0,0,1,.68-.45,4.82,4.82,0,0,0,.67-.34.73.73,0,0,0,.29-.67A1.26,1.26,0,0,0,549,401a2.93,2.93,0,0,0-1.48-.34,5,5,0,0,0-1.75.36,4.77,4.77,0,0,0-1.76,1.21,6.84,6.84,0,0,0-1.35,2.23,9.32,9.32,0,0,0-.54,3.4v6.84h2.43a9.76,9.76,0,0,1,3.29.38q.94.38.95,1.15,0,1.21-1.35,1.21l-1.49,0-1.64,0-1.64,0-1.44,0-1.17,0-1,0-.95,0-1.1,0a1.41,1.41,0,0,1-1.08-.38,1.24,1.24,0,0,1-.36-.88,1.56,1.56,0,0,1,.34-.95,1.53,1.53,0,0,1,1.1-.54,2.3,2.3,0,0,0,1.42-.52,1.66,1.66,0,0,0,.38-1c0-.39.05-.89.07-1.51s0-1.42.07-2.43.05-2.24.07-3.71,0-3.29,0-5.45q0-.63-.68-.63h-2.2a3.33,3.33,0,0,1-1.69-.34q-.56-.34-.56-.7t.7-.65a8.61,8.61,0,0,1,1.69-.38q1-.13,2.12-.18t1.93,0a3.13,3.13,0,0,1,1.58.27q.4.27.4,1.44V401a7.53,7.53,0,0,1,2.48-2.36,6,6,0,0,1,3-.79,5.3,5.3,0,0,1,2,.38,5.53,5.53,0,0,1,1.6,1,4.24,4.24,0,0,1,1,1.39A3.91,3.91,0,0,1,552.79,402.28Z"/><path class="a" d="M568.4,407.32c0-.33,0-.65,0-1s0-.55,0-.7a7.74,7.74,0,0,0-1.24-4.66,4.55,4.55,0,0,0-3.94-1.69,9,9,0,0,0-1.62.16,7.54,7.54,0,0,0-1.55.45,4.08,4.08,0,0,0-1.17.72,1.28,1.28,0,0,0-.47,1,.48.48,0,0,0,.22.47,2.81,2.81,0,0,0,.67.2,1.62,1.62,0,0,1,.72.36,1.23,1.23,0,0,1,.4,1,1.44,1.44,0,0,1-.54,1.19,2.26,2.26,0,0,1-1.44.43,2.11,2.11,0,0,1-2-1,4.17,4.17,0,0,1-.58-2.16,4.77,4.77,0,0,1,2.07-4,9.17,9.17,0,0,1,5.63-1.55q8,0,8,8.78,0,.5,0,1.3t0,1.73q0,.92,0,1.84t0,1.6a12.41,12.41,0,0,0,.18,2.7.78.78,0,0,0,.81.63.66.66,0,0,0,.65-.31,3.18,3.18,0,0,0,.25-.9,1.55,1.55,0,0,1,.32-.63,1.05,1.05,0,0,1,.9-.36.74.74,0,0,1,.76.45,2.79,2.79,0,0,1,.18,1,3.91,3.91,0,0,1-.29,1.6,2.85,2.85,0,0,1-.79,1.06,3.15,3.15,0,0,1-1.1.58,4.52,4.52,0,0,1-1.28.18,4,4,0,0,1-2.18-.61,3.36,3.36,0,0,1-1.37-2,10.23,10.23,0,0,1-3.17,2,10.54,10.54,0,0,1-3.85.67,8,8,0,0,1-5-1.44,4.63,4.63,0,0,1-1.87-3.87,5.54,5.54,0,0,1,.54-2.43,5.63,5.63,0,0,1,1.53-1.93,7.58,7.58,0,0,1,2.36-1.28,9.45,9.45,0,0,1,3.08-.47,10.44,10.44,0,0,1,6.3,2.07Zm-10.62,5.22a2.12,2.12,0,0,0,1.39,2,7.79,7.79,0,0,0,3.33.65,10,10,0,0,0,2.27-.25,8.48,8.48,0,0,0,1.87-.65,4,4,0,0,0,1.28-1,1.89,1.89,0,0,0,.47-1.24,1.92,1.92,0,0,0-.41-1.17,3.34,3.34,0,0,0-1.12-.92,7.1,7.1,0,0,0-1.64-.61,8.42,8.42,0,0,0-2-.23,8.88,8.88,0,0,0-2.16.25,5.92,5.92,0,0,0-1.71.7,3.79,3.79,0,0,0-1.15,1.08A2.36,2.36,0,0,0,557.78,412.54Z"/><path class="a" d="M597.52,416.1h2.43c.21,0,.46,0,.74,0a3.25,3.25,0,0,1,.83.2,1.78,1.78,0,0,1,.67.45,1.11,1.11,0,0,1,.27.79.89.89,0,0,1-.5.9,2.82,2.82,0,0,1-1.17.22l-1.46,0-2.7,0-2.7,0-1.42,0a2.11,2.11,0,0,1-1-.25,1.05,1.05,0,0,1-.45-1,1,1,0,0,1,.43-.92,2.42,2.42,0,0,1,.83-.38,3.42,3.42,0,0,0,1.48-.41q.36-.27.45-1.35.09-1.8.11-3.06t0-1.35q0-2.07-.16-4a14.36,14.36,0,0,0-.63-3.33,5.56,5.56,0,0,0-1.35-2.27,3.24,3.24,0,0,0-2.36-.86,4.94,4.94,0,0,0-3.35,1.28,8.64,8.64,0,0,0-2.23,3,9.48,9.48,0,0,0-.74,2.41,15.33,15.33,0,0,0-.25,2.72v5h3a2.61,2.61,0,0,1,1.26.27q.5.27.5,1.17t-.43,1a3,3,0,0,1-1.33.23h-1.37l-2.63,0-2.68,0h-1.46a4.65,4.65,0,0,1-1.33-.18q-.61-.18-.61-1a1.08,1.08,0,0,1,.56-1.08,2.53,2.53,0,0,1,1.1-.27h.9a.88.88,0,0,0,.65-.25,1.66,1.66,0,0,0,.38-.63,3.5,3.5,0,0,0,.18-.79,7.1,7.1,0,0,0,0-.76q0-.76,0-2.45t.09-3.49q0-1.8.07-3.24t0-1.71q0-1.49-.76-1.49h-2.34l-1,0a8.37,8.37,0,0,1-.95-.09,2.24,2.24,0,0,1-.72-.23.48.48,0,0,1-.29-.43.94.94,0,0,1,.34-.74,2.77,2.77,0,0,1,1.19-.47,15,15,0,0,1,2.27-.25q1.42-.07,3.58-.07a2.35,2.35,0,0,1,1.44.27,1.88,1.88,0,0,1,.32,1.17l.13,2.79a7.2,7.2,0,0,1,3-3.26,8.29,8.29,0,0,1,4.23-1.15,8.09,8.09,0,0,1,2.18.34,5.43,5.43,0,0,1,2.23,1.31,7.24,7.24,0,0,1,1.71,2.68,12.34,12.34,0,0,1,.67,4.46Z"/><path class="a" d="M606.2,415.92a5.63,5.63,0,0,1,0,.68v.58a1.83,1.83,0,0,1-.34,1.13,1.19,1.19,0,0,1-1,.45,2.4,2.4,0,0,1-.43,0,1.66,1.66,0,0,1-.5-.18,1.17,1.17,0,0,1-.41-.36,1,1,0,0,1-.16-.58q0-.23,0-1.1t0-1.51q0-.9-.09-2t-.09-2.12a3,3,0,0,1,.18-1.15q.18-.43,1-.43a1.27,1.27,0,0,1,1.19.49,3.29,3.29,0,0,1,.38,1.31q.09.63.11,1a2.14,2.14,0,0,0,.25.83,4.62,4.62,0,0,0,.67,1,4.47,4.47,0,0,0,1.17,1,7.85,7.85,0,0,0,1.64.72,6.9,6.9,0,0,0,2.09.29,9,9,0,0,0,1.51-.13,5.7,5.7,0,0,0,1.46-.45,3,3,0,0,0,1.1-.85,2.11,2.11,0,0,0,.43-1.35A2.32,2.32,0,0,0,615,410.9a26.81,26.81,0,0,0-4.21-1.37q-1.17-.27-2.38-.67a9.25,9.25,0,0,1-2.25-1.1,5.4,5.4,0,0,1-1.69-1.84,5.81,5.81,0,0,1-.65-2.9,6.09,6.09,0,0,1,.61-2.83,5.55,5.55,0,0,1,1.6-1.91,6.48,6.48,0,0,1,2.27-1.08,10.31,10.31,0,0,1,2.63-.34,8.53,8.53,0,0,1,2.27.27,5.7,5.7,0,0,1,1.64.72,4.59,4.59,0,0,1,1.08,1,9.67,9.67,0,0,1,.68,1q0-.58-.07-1.22t0-.85q0-1,.52-1.35a1.83,1.83,0,0,1,.92-.32,1.53,1.53,0,0,1,1,.38,2,2,0,0,1,.47,1.55q0,.95,0,2t-.07,2q0,.92-.09,1.64t0,1a1,1,0,0,1-.54.9,1.91,1.91,0,0,1-.9.27,1,1,0,0,1-.86-.4,2.7,2.7,0,0,1-.36-.72s0-.14,0-.34-.07-.42-.11-.68-.1-.5-.16-.74a2.17,2.17,0,0,0-.23-.58,5.54,5.54,0,0,0-1.67-1.87,5.38,5.38,0,0,0-3.24-.83,4.81,4.81,0,0,0-3.2.92,3,3,0,0,0-1.08,2.41,2.77,2.77,0,0,0,.41,1.53,3.68,3.68,0,0,0,1.08,1.08,6.36,6.36,0,0,0,1.58.74q.9.29,1.93.56,1.66.45,3.11.9a10.54,10.54,0,0,1,2.47,1.1,5.06,5.06,0,0,1,1.64,1.64,4.65,4.65,0,0,1,.61,2.47,4.8,4.8,0,0,1-.76,2.83,5.57,5.57,0,0,1-1.87,1.69,7.26,7.26,0,0,1-2.41.81,15.69,15.69,0,0,1-2.38.2,14,14,0,0,1-1.71-.11,8,8,0,0,1-1.71-.41,5.91,5.91,0,0,1-1.49-.79A3.66,3.66,0,0,1,606.2,415.92Z"/><path class="a" d="M654.22,415.78h2.56a2.68,2.68,0,0,1,1.89.45,1.29,1.29,0,0,1,.4.81,1,1,0,0,1-.45.83,2.45,2.45,0,0,1-1.35.38l-1.3,0-2,0-2.09,0H650.3a6.36,6.36,0,0,1-2.5-.32,1.12,1.12,0,0,1-.61-1.08q0-1.17,1.26-1.26l1.35-.09a1.27,1.27,0,0,0,.7-.25,1.88,1.88,0,0,0,.34-1.15c0-.21.06-.55.09-1s.06-1,.09-1.62.06-1.28.09-2,0-1.4,0-2.09a14.66,14.66,0,0,0-.79-5.69,2.74,2.74,0,0,0-2.68-1.69,4.94,4.94,0,0,0-2,.41,6.79,6.79,0,0,0-1.69,1.06,7.94,7.94,0,0,0-1.35,1.49,10.47,10.47,0,0,0-1,1.73v9.67h2.43a1.58,1.58,0,0,1,1.35.45,1.51,1.51,0,0,1,.32.85,1.19,1.19,0,0,1-.29.88,1,1,0,0,1-.7.29h-1.21l-2.27,0-2.34,0h-1.42a3.87,3.87,0,0,1-1.62-.25,1,1,0,0,1-.5-1,1.38,1.38,0,0,1,.29-.9,1.1,1.1,0,0,1,.79-.4l.45,0a1.65,1.65,0,0,0,1.35-.61,2.43,2.43,0,0,0,.32-1.28q0-.76,0-1.62t0-2.56v-.95q0-.85,0-1.89a8.3,8.3,0,0,0-.79-3.67,2.41,2.41,0,0,0-2.27-1.24,6.19,6.19,0,0,0-2.36.45,5.17,5.17,0,0,0-1.91,1.35,6.57,6.57,0,0,0-1.28,2.25,9.4,9.4,0,0,0-.47,3.11v7h1.93a2.88,2.88,0,0,1,2,.52,1.49,1.49,0,0,1,.54,1.06,1.06,1.06,0,0,1-.29.7,1.42,1.42,0,0,1-1.1.34H632l-1.1,0-2.5,0h-4.68a1,1,0,0,1-.92-.43,1.53,1.53,0,0,1-.29-.88,1.29,1.29,0,0,1,.27-.74,1,1,0,0,1,.9-.38l1,0a1.33,1.33,0,0,0,.61-.16.92.92,0,0,0,.36-.45,3.91,3.91,0,0,0,.22-.9q.09-.76.29-2.88t.2-5q0-1.71-.09-2.7a8.11,8.11,0,0,0-.25-1.51,1.14,1.14,0,0,0-.38-.65.87.87,0,0,0-.45-.13h-.58q-3.29,0-3.29-1,0-.4.54-.67a5.41,5.41,0,0,1,1.49-.43,20.37,20.37,0,0,1,2.25-.22q1.3-.07,2.79-.07a.69.69,0,0,1,.54.2,1.41,1.41,0,0,1,.22.79l.13,2.92a6.48,6.48,0,0,1,2.52-3.08,7.07,7.07,0,0,1,3.92-1.1,5.41,5.41,0,0,1,5.54,3.92,9.21,9.21,0,0,1,3.08-3.29,7.36,7.36,0,0,1,3.89-1.08,5.76,5.76,0,0,1,4.28,1.73q1.71,1.73,1.71,5.56Z"/><path class="a" d="M680.86,406.92a11,11,0,0,1-1,4.82,10.67,10.67,0,0,1-2.54,3.44,10.4,10.4,0,0,1-3.49,2,11.59,11.59,0,0,1-3.83.67,10.78,10.78,0,0,1-4.19-.79,9.49,9.49,0,0,1-3.26-2.23,10.19,10.19,0,0,1-2.14-3.44,12.82,12.82,0,0,1,0-8.73,9.84,9.84,0,0,1,2.18-3.44A10.25,10.25,0,0,1,666,397a11.68,11.68,0,0,1,4.52-.83A10.54,10.54,0,0,1,675,397a9.49,9.49,0,0,1,3.22,2.36,10.24,10.24,0,0,1,2,3.42A12.34,12.34,0,0,1,680.86,406.92Zm-10.35-8.05a7.55,7.55,0,0,0-2.83.54,7,7,0,0,0-2.39,1.58,7.47,7.47,0,0,0-1.64,2.56A9.35,9.35,0,0,0,663,407a9.13,9.13,0,0,0,.65,3.6,7.74,7.74,0,0,0,1.69,2.54,6.84,6.84,0,0,0,2.3,1.51,6.6,6.6,0,0,0,2.43.5,7,7,0,0,0,2.47-.5,7.67,7.67,0,0,0,4.28-4.09,8.93,8.93,0,0,0,.72-3.74,9.6,9.6,0,0,0-.52-3.22,7.71,7.71,0,0,0-1.44-2.52,6.41,6.41,0,0,0-2.23-1.64A7,7,0,0,0,670.51,398.86Z"/><path class="a" d="M693,396.7a11.35,11.35,0,0,1,3.42.5,14.76,14.76,0,0,1,1.19-1.39,9,9,0,0,1,1.37-1.17,7.61,7.61,0,0,1,1.44-.79,3.61,3.61,0,0,1,1.35-.29,2.21,2.21,0,0,1,1.15.34,1.19,1.19,0,0,1,.56,1.1,1.31,1.31,0,0,1-.29.86,1.27,1.27,0,0,1-.79.45,8,8,0,0,0-2.07.5,5.56,5.56,0,0,0-2,1.31,6.32,6.32,0,0,1,2.34,2.5,7.11,7.11,0,0,1,.76,3.26,7.28,7.28,0,0,1-.58,2.92,6.43,6.43,0,0,1-1.73,2.34,8.36,8.36,0,0,1-2.79,1.55,11.55,11.55,0,0,1-3.76.56q-.63,0-1.15,0a5.28,5.28,0,0,1-1.1-.22,5.83,5.83,0,0,0-1.62.85,1.58,1.58,0,0,0-.63,1.3q0,.9,1.71,1.28a27.59,27.59,0,0,0,5.22.43q1.93,0,4,.18a15,15,0,0,1,3.89.83,7.13,7.13,0,0,1,2.95,2A5.35,5.35,0,0,1,707,421.5a5.06,5.06,0,0,1-.92,2.95,7.53,7.53,0,0,1-2.59,2.25,14.93,14.93,0,0,1-4,1.44,23.48,23.48,0,0,1-5.11.52,20.82,20.82,0,0,1-4.19-.41A11.94,11.94,0,0,1,686.8,427a7,7,0,0,1-2.36-2.09,5,5,0,0,1-.88-2.92q0-3.87,5.22-4.91a6.78,6.78,0,0,1-2.86-1.12,3,3,0,0,1-1.1-2.56,2.87,2.87,0,0,1,.7-2,6.55,6.55,0,0,1,2.09-1.37,5.72,5.72,0,0,1-2.14-2.52,8,8,0,0,1-.7-3.29,7.38,7.38,0,0,1,.58-3,7.18,7.18,0,0,1,1.64-2.36,7.4,7.4,0,0,1,2.56-1.58A9.67,9.67,0,0,1,693,396.7Zm2.66,20.75a17,17,0,0,0-3,.27,11.94,11.94,0,0,0-2.83.85,6.63,6.63,0,0,0-2.14,1.46,3,3,0,0,0-.83,2.14,2.18,2.18,0,0,0,.74,1.64,6,6,0,0,0,2,1.17,12.68,12.68,0,0,0,2.7.7,19.87,19.87,0,0,0,3,.22,13.8,13.8,0,0,0,6.37-1.17q2.18-1.17,2.18-2.88a3.11,3.11,0,0,0-.54-1.84,4.18,4.18,0,0,0-1.37-1.24A7.9,7.9,0,0,0,700,418a16.75,16.75,0,0,0-1.89-.41,13.89,13.89,0,0,0-1.6-.16Zm-2.34-18a5.27,5.27,0,0,0-3.83,1.35,4.67,4.67,0,0,0-1.4,3.51,4.08,4.08,0,0,0,1.28,3,5,5,0,0,0,3.62,1.26,5.35,5.35,0,0,0,3.8-1.28,4.43,4.43,0,0,0,1.37-3.4,4.25,4.25,0,0,0-1.28-3.24A5,5,0,0,0,693.28,399.4Z"/><path class="a" d="M723.07,402.28a7,7,0,0,1-.16,1.49,3.93,3.93,0,0,1-.52,1.28,2.92,2.92,0,0,1-.95.92,2.79,2.79,0,0,1-1.48.36,2.53,2.53,0,0,1-1.42-.43,1.47,1.47,0,0,1-.65-1.33,1.33,1.33,0,0,1,.29-1,2.06,2.06,0,0,1,.68-.45,4.82,4.82,0,0,0,.67-.34.73.73,0,0,0,.29-.67,1.26,1.26,0,0,0-.58-1.19,2.93,2.93,0,0,0-1.48-.34A5,5,0,0,0,716,401a4.77,4.77,0,0,0-1.76,1.21,6.84,6.84,0,0,0-1.35,2.23,9.32,9.32,0,0,0-.54,3.4v6.84h2.43a9.76,9.76,0,0,1,3.29.38q.94.38.95,1.15,0,1.21-1.35,1.21l-1.49,0-1.64,0-1.64,0-1.44,0-1.17,0-1,0-.95,0-1.1,0a1.41,1.41,0,0,1-1.08-.38,1.24,1.24,0,0,1-.36-.88,1.56,1.56,0,0,1,.34-.95,1.53,1.53,0,0,1,1.1-.54,2.3,2.3,0,0,0,1.42-.52,1.66,1.66,0,0,0,.38-1c0-.39.05-.89.07-1.51s0-1.42.07-2.43.05-2.24.07-3.71,0-3.29,0-5.45q0-.63-.68-.63h-2.2a3.33,3.33,0,0,1-1.69-.34q-.56-.34-.56-.7t.7-.65a8.61,8.61,0,0,1,1.69-.38q1-.13,2.12-.18t1.93,0a3.13,3.13,0,0,1,1.58.27q.4.27.4,1.44V401a7.53,7.53,0,0,1,2.48-2.36,6,6,0,0,1,3-.79,5.3,5.3,0,0,1,2,.38,5.53,5.53,0,0,1,1.6,1,4.24,4.24,0,0,1,1,1.39A3.91,3.91,0,0,1,723.07,402.28Z"/><path class="a" d="M732.61,414.79h2.56a4.48,4.48,0,0,1,1.58.23q.58.23.58,1.13a1.13,1.13,0,0,1-.41.92,1.43,1.43,0,0,1-.94.34h-8.06l-1.1,0a4.59,4.59,0,0,1-1-.13,1.81,1.81,0,0,1-.72-.36.86.86,0,0,1-.29-.7,1,1,0,0,1,.18-.63,1.08,1.08,0,0,1,.54-.34,5.43,5.43,0,0,1,.83-.18l1.1-.16a5.88,5.88,0,0,0,1.35-.29.81.81,0,0,0,.45-.65q.13-1.44.16-3.13t0-3q0-1.71,0-3.29t-.13-3.29a3.11,3.11,0,0,0-.18-.88.49.49,0,0,0-.5-.34l-.7,0-1.08.07-1.06.07-.68,0a1.84,1.84,0,0,1-.81-.23q-.45-.22-.45-.5a1.23,1.23,0,0,1,.23-.81,1.34,1.34,0,0,1,.65-.41,4.62,4.62,0,0,1,1-.18c.4,0,.86-.08,1.37-.13l1.26-.09,1.33-.09q.65,0,1.19,0h.9a.62.62,0,0,1,.68.43,3.94,3.94,0,0,1,.13,1.15Zm-4.54-23.49a2.58,2.58,0,0,1,.16-.79,3.22,3.22,0,0,1,.45-.88,2.56,2.56,0,0,1,.79-.7,2.26,2.26,0,0,1,1.17-.29,2.2,2.2,0,0,1,1.58.65,2.42,2.42,0,0,1,.67,1.82,2.59,2.59,0,0,1-.88,2.25,2.91,2.91,0,0,1-1.69.63,2,2,0,0,1-1.6-.76A2.87,2.87,0,0,1,728.06,391.3Z"/><path class="a" d="M756.32,398.14q0,1.57,0,3.67t-.07,4.25q0,2.16-.07,4.23t0,3.65v2.43q0,.68,0,1.33c0,.43,0,.8,0,1.1h3.15a3.79,3.79,0,0,1,1.6.27.93.93,0,0,1,.56.9q0,.67-.45.83a2.73,2.73,0,0,1-.9.16h-7.25l-1.12,0a7.28,7.28,0,0,1-1.06-.11,2,2,0,0,1-.77-.29.65.65,0,0,1-.29-.56.76.76,0,0,1,.5-.81,5.76,5.76,0,0,1,1-.27,8.1,8.1,0,0,0,1.53-.27q.36-.13.36-.67a23.93,23.93,0,0,0,.18-2.7q0-1.8,0-4.37,0-1.71,0-3.62t0-3.58q0-1.67,0-2.88t-.07-1.53a1.62,1.62,0,0,0-.18-.52q-.13-.25-.63-.25l-.56,0-1,0-1.1,0-.81,0-.95,0-1.15,0-1.06,0-.72,0c-.54,0-.81.17-.81.5v1q0,.83,0,2t0,2.52q0,1.35,0,2.57t0,2.14v1.24a25.47,25.47,0,0,0,.18,3.15q.18,1.44.22,1.67H749q1.39,0,1.39,1.08a.85.85,0,0,1-.41.79,3.36,3.36,0,0,1-1.58.25l-1,0-1.33,0-1.39,0-1.19,0q-1.22,0-2.36.07t-1.64.07a6.06,6.06,0,0,1-1.19-.11q-.56-.11-.56-.83a.73.73,0,0,1,.58-.79q.58-.16,1.08-.25a3.17,3.17,0,0,0,1.22-.29,1.17,1.17,0,0,0,.27-.65,13.46,13.46,0,0,0,.13-1.64q0-1.15.07-2.63t0-3.15v-7.38a2.55,2.55,0,0,0-.11-.9.46.46,0,0,0-.47-.27h-2.11a1.58,1.58,0,0,1-1.17-.4,1.35,1.35,0,0,1-.41-1,1,1,0,0,1,.45-.95,2.46,2.46,0,0,1,1.26-.27h2a.45.45,0,0,0,.5-.36,4.55,4.55,0,0,0,.09-1q0-1.44.11-3.08a22.73,22.73,0,0,1,.45-3.22,16.81,16.81,0,0,1,.95-3,8,8,0,0,1,1.67-2.52,7.88,7.88,0,0,1,2.61-1.73,9.69,9.69,0,0,1,3.76-.65,8.73,8.73,0,0,1,2.21.29,4.75,4.75,0,0,1,2,1.15,6.06,6.06,0,0,1,1.49,2.34,11,11,0,0,1,.56,3.83,8,8,0,0,1-.11,1.37,3.32,3.32,0,0,1-.43,1.17,2.32,2.32,0,0,1-.81.81,2.53,2.53,0,0,1-1.3.29,2.42,2.42,0,0,1-1.84-.58,1.93,1.93,0,0,1-.54-1.35,1.26,1.26,0,0,1,.27-.88q.27-.29.61-.61a4.41,4.41,0,0,0,.63-.74,2.38,2.38,0,0,0,.29-1.33,3,3,0,0,0-.2-1.08,2.77,2.77,0,0,0-.65-1,3.22,3.22,0,0,0-1.19-.72,5.38,5.38,0,0,0-1.82-.27,4,4,0,0,0-2.29.63,5.25,5.25,0,0,0-1.58,1.67,9.17,9.17,0,0,0-1,2.34,23,23,0,0,0-.56,2.63,22.38,22.38,0,0,0-.25,2.59q0,1.26,0,2.16a2.42,2.42,0,0,0,.07.77.29.29,0,0,0,.29.13h10.44a1.15,1.15,0,0,1,1.15.61A3.84,3.84,0,0,1,756.32,398.14Z"/><path class="a" d="M764.87,406.65a4.58,4.58,0,0,0-.07.47c0,.17,0,.32,0,.47a8.49,8.49,0,0,0,.45,2.7,7.67,7.67,0,0,0,1.33,2.43,6.6,6.6,0,0,0,2.16,1.73,6.42,6.42,0,0,0,2.95.65,7.29,7.29,0,0,0,3-.54,5.65,5.65,0,0,0,2-1.37,5.33,5.33,0,0,0,1.08-1.8,5.42,5.42,0,0,0,.34-1.78,2,2,0,0,1,.29-.9,1.28,1.28,0,0,1,1.24-.54,1.34,1.34,0,0,1,.94.38,1.38,1.38,0,0,1,.41,1.06,10.23,10.23,0,0,1-.47,3.08,6.71,6.71,0,0,1-1.6,2.68,8.05,8.05,0,0,1-3.06,1.89,13.94,13.94,0,0,1-4.82.72,10.09,10.09,0,0,1-4.12-.79,8.19,8.19,0,0,1-3-2.23,9.62,9.62,0,0,1-1.82-3.4,15.84,15.84,0,0,1,.11-9.07A9.68,9.68,0,0,1,764.2,399a9.28,9.28,0,0,1,3.24-2.23,10.79,10.79,0,0,1,4.19-.79,9.09,9.09,0,0,1,4.18.88,8.7,8.7,0,0,1,2.75,2.12A8.06,8.06,0,0,1,780,401.5a7.23,7.23,0,0,1,.45,2.23,4,4,0,0,1-.5,1.93,1.53,1.53,0,0,1-1.39.9l-3.31,0-4.07,0h-1.3l-1.8,0-1.82,0Zm11.56-2.88q.76,0,.76-.36a3.86,3.86,0,0,0-.36-1.51,4.93,4.93,0,0,0-1.06-1.53A5.73,5.73,0,0,0,774,399.2a6.24,6.24,0,0,0-2.52-.47,6.44,6.44,0,0,0-2.52.47,6.62,6.62,0,0,0-1.94,1.21,6.28,6.28,0,0,0-1.3,1.67,6.5,6.5,0,0,0-.67,1.87Z"/><path class="a" d="M800.78,402.28a7,7,0,0,1-.16,1.49,3.93,3.93,0,0,1-.52,1.28,2.92,2.92,0,0,1-.95.92,2.79,2.79,0,0,1-1.48.36,2.53,2.53,0,0,1-1.42-.43,1.47,1.47,0,0,1-.65-1.33,1.33,1.33,0,0,1,.29-1,2.06,2.06,0,0,1,.68-.45,4.82,4.82,0,0,0,.67-.34.73.73,0,0,0,.29-.67A1.26,1.26,0,0,0,797,401a2.93,2.93,0,0,0-1.48-.34,5,5,0,0,0-1.75.36,4.77,4.77,0,0,0-1.76,1.21,6.84,6.84,0,0,0-1.35,2.23,9.32,9.32,0,0,0-.54,3.4v6.84h2.43a9.76,9.76,0,0,1,3.29.38q.94.38.95,1.15,0,1.21-1.35,1.21l-1.49,0-1.64,0-1.64,0-1.44,0-1.17,0-1,0-.95,0-1.1,0a1.41,1.41,0,0,1-1.08-.38,1.24,1.24,0,0,1-.36-.88,1.56,1.56,0,0,1,.34-.95,1.53,1.53,0,0,1,1.1-.54,2.3,2.3,0,0,0,1.42-.52,1.66,1.66,0,0,0,.38-1c0-.39.05-.89.07-1.51s0-1.42.07-2.43.05-2.24.07-3.71,0-3.29,0-5.45q0-.63-.68-.63h-2.2a3.33,3.33,0,0,1-1.69-.34q-.56-.34-.56-.7t.7-.65a8.61,8.61,0,0,1,1.69-.38q1-.13,2.12-.18t1.93,0a3.13,3.13,0,0,1,1.58.27q.4.27.4,1.44V401a7.53,7.53,0,0,1,2.48-2.36,6,6,0,0,1,3-.79,5.3,5.3,0,0,1,2,.38,5.53,5.53,0,0,1,1.6,1,4.24,4.24,0,0,1,1,1.39A3.91,3.91,0,0,1,800.78,402.28Z"/></svg>