<svg xmlns="http://www.w3.org/2000/svg" viewBox="0 0 1024 512">
  <defs>
    <style>
      .a {
        fill: #ff1d25;
      }
    </style>
  </defs>
  <title>spiff</title>
  <g>
    <g>
      <path class="a" d="M232.86,342.14a43.74,43.74,0,0,1,.31,5.34v4.71a27.74,27.74,0,0,1-.94,7.85,4.14,4.14,0,0,1-4.39,3.14,4.64,4.64,0,0,1-3.61-1.57q-1.41-1.57-1.41-6c0-1.68.1-4.5,0.31-8.47s0.31-7.42.31-10.36q0-6-.63-13.49t-0.63-13.18q0-10,4.39-10,4.71,0,5.65,11,0.63,11,2.51,16.95t7.85,11.3a41.17,41.17,0,0,0,16.16,9.26,64.93,64.93,0,0,0,18.67,2.67A60,60,0,0,0,290,349.83a37.46,37.46,0,0,0,11.92-4.71,29.3,29.3,0,0,0,8.94-8.63q3.6-5.33,3.61-13.49,0-7.22-3.14-11.77a26.16,26.16,0,0,0-9.1-7.85,66,66,0,0,0-14.75-5.65q-8.79-2.35-20.08-4.86-19.77-4.39-30.75-13.5t-11-27q0-11.3,4.24-19.14a38.8,38.8,0,0,1,11.3-13,47,47,0,0,1,16-7.53,71.82,71.82,0,0,1,18.36-2.35,57.56,57.56,0,0,1,15.69,1.88,40.22,40.22,0,0,1,11.3,5,32,32,0,0,1,7.53,6.75,67.67,67.67,0,0,1,4.71,6.75q-0.32-4.07-.47-8.47t-0.16-6.9q0-6.27,1.26-8.47a4.07,4.07,0,0,1,3.77-2.2A4.62,4.62,0,0,1,323.4,207a11.11,11.11,0,0,1,1.41,5.81q0,18.83-.47,31.23t-0.47,15.85a16.37,16.37,0,0,1-.94,5.49,3.67,3.67,0,0,1-3.77,2.67,3.94,3.94,0,0,1-3.92-2.67,19.87,19.87,0,0,1-1.41-5.18q-0.32-2.51-.47-5.81a31,31,0,0,0-1.73-8,44.8,44.8,0,0,0-4.39-10.51A29.08,29.08,0,0,0,300,227.6a34.36,34.36,0,0,0-10.67-5.49,49.1,49.1,0,0,0-15.06-2,60.78,60.78,0,0,0-14.75,1.73,31.52,31.52,0,0,0-11.93,5.65,26.73,26.73,0,0,0-7.85,10,35.44,35.44,0,0,0-2.82,14.91q0,8.16,2.67,13.34a21.07,21.07,0,0,0,8.16,8.47,57.13,57.13,0,0,0,13.81,5.65q8.31,2.35,19.61,4.86,10.36,2.52,18.67,5.18A55.57,55.57,0,0,1,314,296.48a28,28,0,0,1,9.1,10,31.08,31.08,0,0,1,3.3,14.91q0,13.5-6.28,21.34a42.72,42.72,0,0,1-14.59,11.93,53.83,53.83,0,0,1-16.79,5.18,108.52,108.52,0,0,1-12.55,1.1,63.57,63.57,0,0,1-13-1.41,69.19,69.19,0,0,1-12.71-3.92,52.25,52.25,0,0,1-10.67-6A23.08,23.08,0,0,1,232.86,342.14Z"/>
      <path class="a" d="M392.28,245.17Q400.44,226,415.19,216t30.44-10q17.89,0,29.19,7.22a52.68,52.68,0,0,1,17.57,18A73.11,73.11,0,0,1,501,254.9a134.7,134.7,0,0,1,2.35,24.16q0,22.6-7.06,37.5t-17.1,24A60.43,60.43,0,0,1,458,353.44q-11.14,3.76-19.3,3.77a61.91,61.91,0,0,1-18-2.35,54,54,0,0,1-13.34-6,38.76,38.76,0,0,1-9.26-8,52.89,52.89,0,0,1-5.81-8.47v75.95h20.4q8.16,0,11.93,1.57t3.77,3.14a3.25,3.25,0,0,1-1.88,3.14,9.71,9.71,0,0,1-4.39.94H351.48a11.9,11.9,0,0,1-3.77-.63q-1.88-.63-1.88-3.14,0-1.88,3.14-3t11.3-1.73a78.62,78.62,0,0,0,11.14-1.1,9.18,9.18,0,0,0,5.81-3.3q1.88-2.52,2.2-8t0.31-15.53q0-6.28.16-12.24t0.31-13.18q0.15-7.22.31-16.95t0.16-23.54q0-16-.16-27.77T380,266q-0.32-9.25-.47-16.32t-0.16-13.65q0-9.41-2-11.3t-8.63-1.88h-22.6a78.8,78.8,0,0,1-8-.47q-4.55-.47-4.55-2.67t4.24-3.61a56.84,56.84,0,0,1,11.3-2.2q7.06-.78,16.32-0.94t19-.16q4.39,0,6.12,2t1.73,9.26v21ZM392,285a133.78,133.78,0,0,0,2,23.85,58.58,58.58,0,0,0,7.22,19.93,39.21,39.21,0,0,0,14,13.81q8.78,5.18,22.6,5.18a51.58,51.58,0,0,0,16.16-3A44.34,44.34,0,0,0,470.89,334q8-7.84,13.34-21.34t5.34-34.21A143.24,143.24,0,0,0,488,258.35a63.86,63.86,0,0,0-6.43-20.4,44.55,44.55,0,0,0-13.81-15.85q-8.94-6.43-23.38-6.43a42.58,42.58,0,0,0-17.73,4.24,50.55,50.55,0,0,0-16.95,13A72.13,72.13,0,0,0,397,254.74Q392,267.77,392,285Z"/>
      <path class="a" d="M568.33,345h19.46a44,44,0,0,1,11,1.1q4.08,1.1,4.08,3.61a3.28,3.28,0,0,1-3,3.45,31,31,0,0,1-6.43.63h-49.9q-7.53,0-14.59-.47t-7.06-3.3q0-3.13,20.09-4.39,6.9-.63,9.57-1.88a5.3,5.3,0,0,0,3-4.71q0.94-11.92,1.1-26.36t0.16-25.73q0-14.43-.31-27.77t-0.94-27.46a9.15,9.15,0,0,0-1.26-3.92q-0.94-1.41-3.45-1.41c-1.05,0-2.82.11-5.34,0.31s-5.13.37-7.85,0.47-5.33.26-7.85,0.47-4.19.31-5,.31a38.38,38.38,0,0,1-5.65-.47c-2.09-.31-3.14-1.3-3.14-3q0-2.82,4.39-4.08t15.38-1.88q6.9-.62,15.38-1.1t12.55-.47q3.76,0,4.71,3a27.45,27.45,0,0,1,.94,8V345Z"/>
      <path class="a" d="M699.5,339.63q0.94-13.49,1.41-26.83t0.47-28.4q0-15.06-.31-32.64t-0.63-33.89q-4.71,0-12.24-.16t-15.06-.16q-7.53,0-13.34-.16t-7.06-.16q-3.76,0-4.71.94a3.39,3.39,0,0,0-.94,2.51V363.17h21.34q9.1,0,9.1,4.71,0,2.19-2.67,3.3T664,372.27q-5.34,0-12.87-.31t-14.75-.31q-8.47,0-15.69.47t-10.67.47a51.61,51.61,0,0,1-7.53-.47q-3.14-.47-3.14-3t3.3-3.14a67.75,67.75,0,0,1,6.75-.94q13.18-.94,18-2t5.18-4.55q0.31-6.59.78-16.63t0.63-20.4q0.15-10.36.31-19.46t0.16-14.12q0-13.81-.16-23.38t-0.31-20.24q-0.16-10.67-.16-18.83a17.92,17.92,0,0,0-.79-6.28,3.19,3.19,0,0,0-3.3-1.88h-21q-5.34,0-7.22-1.73a4.93,4.93,0,0,1-1.88-3.61,2.67,2.67,0,0,1,2.2-3,43.56,43.56,0,0,1,7.85-.47h20.08a3,3,0,0,0,3.14-2.67,26.94,26.94,0,0,0,.63-6.12q0-4.39.63-12.71a143.56,143.56,0,0,1,2.67-18.2,132.72,132.72,0,0,1,6-20.24,69.51,69.51,0,0,1,10.67-18.83,52.86,52.86,0,0,1,16.79-13.81q10-5.33,24.16-5.34,9.1,0,14.44,2.2a41.15,41.15,0,0,1,9.42,5.34,58.7,58.7,0,0,1,17.42-16.63q10.51-6.59,26.2-6.59,11.61,0,19.46,3.61a34.88,34.88,0,0,1,12.24,8.79,32.41,32.41,0,0,1,6.28,11,33.7,33.7,0,0,1,1.88,10.2,19,19,0,0,1-3.3,11.46,10.46,10.46,0,0,1-8.94,4.55,10.31,10.31,0,0,1-7.38-2.82q-3-2.82-3-8.16,0-5,4.71-8.47a24.88,24.88,0,0,0,3.61-3.14,5.07,5.07,0,0,0,1.1-3.45q0-5-5.65-10.2T763.84,103q-12.55,0-21,5a44.11,44.11,0,0,0-14.12,13.34,64.65,64.65,0,0,0-8.63,18.83,147.58,147.58,0,0,0-4.39,21.5,190.69,190.69,0,0,0-1.57,21.5q-0.16,10.52-.16,18.67,0,4.08.63,5.33a2,2,0,0,0,1.88,1.26h24.48a13.52,13.52,0,0,1,5.81,1.26,4,4,0,0,1,2.67,3.77c0,1.68-.94,2.82-2.82,3.45a19.78,19.78,0,0,1-6.28.94c-1,0-2.51,0-4.39-.16s-3.87-.16-6-0.16-4.13,0-6.12-.16-3.4-.16-4.24-0.16q-3.76,0-4.71.94a3.39,3.39,0,0,0-.94,2.51V344.34h34.21q9.1,0,9.1,4.71,0,2.2-2.67,3.3t-10.83,1.1q-2.52,0-6.9-.16t-9.26-.16q-4.87,0-9.73-.16t-8.32-.16q-8.47,0-14.12.47t-9.1.47a51.46,51.46,0,0,1-7.53-.47q-3.14-.47-3.14-3t3.3-3.14c2.2-.42,4.44-0.73,6.75-0.94a72.78,72.78,0,0,0,9.73-1.57A5.07,5.07,0,0,0,699.5,339.63ZM647.1,201.87c0,2.72.21,4.5,0.63,5.33a2,2,0,0,0,1.88,1.26h50.84q0-10.36.31-21.5a215.81,215.81,0,0,1,1.73-22,158.12,158.12,0,0,1,4.24-21.18,91.28,91.28,0,0,1,7.53-19.14,20.59,20.59,0,0,0-6.59-4.24q-4.08-1.72-11.3-1.73-12.24,0-20.71,5.34a46.5,46.5,0,0,0-14,13.49,66.44,66.44,0,0,0-8.47,18,138.72,138.72,0,0,0-4.39,19.14,129.79,129.79,0,0,0-1.57,16.63Q647.09,198.73,647.1,201.87Z"/>
    </g>
    <path class="a" d="M567.94,105.68c-2.41-.37-38.07,54.62-37.07,57s23.67-10.82,25.25-8.66S539,193,541.34,193.66s48.52-63.25,46.9-65.15-30.14,12.59-31.85,11.24S570.35,106,567.94,105.68Z"/>
  </g>
</svg>
